<svg width="18" height="19" viewBox="0 0 18 19" fill="none" xmlns="http://www.w3.org/2000/svg">
  <circle cx="9" cy="9.5" r="8.5" fill="black" stroke="black"/>
  <path d="M10.1661 5.44309C11.0012 5.56311 13.7365 7.1172 14.1868 10.134C14.6372 13.1509 10.8654 7.87381 9.84762 7.61184C8.82987 7.34987 4.7199 13.7528 3.83496 10.8697C2.95003 7.98652 9.331 5.32306 10.1661 5.44309Z" fill="white"/>
  <path d="M8.83781 10.9708L8.18797 11.2228C7.85881 11.3505 7.71242 11.7349 7.87329 12.0492C7.97351 12.245 8.17353 12.3696 8.39346 12.3733L10.2191 12.4035C10.5353 12.4087 10.8343 12.2602 11.0211 12.0052L11.0334 11.9885C11.2445 11.7004 11.2743 11.3177 11.1104 11.0004C10.891 10.5758 10.388 10.3831 9.94101 10.5525L8.83781 10.9708Z" fill="white"/>
</svg>